<svg xmlns="http://www.w3.org/2000/svg" viewBox="0 0 1600 900" role="img"><defs><linearGradient id="sky" x1="0" y1="0" x2="0" y2="1"><stop offset="0" stop-color="#f6df9c"/><stop offset=".45" stop-color="#b8d9be"/><stop offset="1" stop-color="#4f755d"/></linearGradient><linearGradient id="ground" x1="0" y1="0" x2="1" y2="1"><stop offset="0" stop-color="#789a72"/><stop offset="1" stop-color="#244936"/></linearGradient><radialGradient id="sun"><stop offset="0" stop-color="#fff8cf"/><stop offset="1" stop-color="#e8b85b" stop-opacity="0"/></radialGradient><filter id="soft"><feGaussianBlur stdDeviation="18"/></filter></defs><rect width="1600" height="900" fill="url(#sky)"/><circle cx="1180" cy="210" r="180" fill="url(#sun)"/><g opacity=".18" filter="url(#soft)"><ellipse cx="800" cy="420" rx="620" ry="120" fill="#fff"/></g><path d="M0 600c300-150 600-140 900-25 250 95 460 90 700-20v345H0z" fill="#31523f"/><rect x="560" y="640" width="480" height="170" rx="18" fill="#f5ecd2"/><path d="M800 650v150M580 665c90-35 150-25 220 10M1020 665c-90-35-150-25-220 10" stroke="#b08b4f" stroke-width="12" fill="none"/><g fill="#fff7d6"><circle cx="250" cy="130" r="5"/><circle cx="390" cy="210" r="4"/><circle cx="520" cy="120" r="6"/><circle cx="1280" cy="160" r="5"/><circle cx="1380" cy="250" r="4"/></g><rect width="1600" height="900" fill="#382d52" opacity=".18"/><rect width="1600" height="900" fill="none" stroke="#183b2d" stroke-opacity=".18" stroke-width="8"/></svg>