<svg xmlns="http://www.w3.org/2000/svg" viewBox="0 0 1600 420"><defs><linearGradient id="sky" x1="0" x2="1"><stop stop-color="#f5ead1"/><stop offset=".52" stop-color="#d8b975"/><stop offset="1" stop-color="#8b632c"/></linearGradient><pattern id="geo" width="86" height="86" patternUnits="userSpaceOnUse"><path d="M43 3 56 30l27 13-27 13-13 27-13-27L3 43l27-13Z" fill="none" stroke="#fff" stroke-opacity=".16" stroke-width="2"/><circle cx="43" cy="43" r="12" fill="none" stroke="#fff" stroke-opacity=".1"/></pattern><linearGradient id="floor" x1="0" y1="0" x2="0" y2="1"><stop stop-color="#b58a47"/><stop offset="1" stop-color="#68451e"/></linearGradient></defs><rect width="1600" height="420" fill="url(#sky)"/><rect width="1600" height="420" fill="url(#geo)"/><path d="M980 340V165h62v175m72 0V125h74v215m76 0V184h58v156" fill="#5d401f" opacity=".78"/><path d="M952 165h118c-8-50-31-77-59-77s-51 27-59 77Zm132-40h134c-9-64-35-98-67-98s-58 34-67 98Zm151 59h116c-7-46-29-71-58-71s-51 25-58 71Z" fill="#755126"/><path d="M1077 340v-74c0-38 24-66 53-66s53 28 53 66v74" fill="#d6b879" opacity=".74"/><path d="M0 330c300-34 510-20 760 5 250 24 536-4 840-35v120H0Z" fill="url(#floor)"/><path d="M0 365c330-32 640-10 920 9 255 18 468 4 680-19" fill="none" stroke="#edd9aa" stroke-opacity=".35" stroke-width="4"/><path d="M1390 85v255h10V85h-10Zm-18 0h46l-23-49Z" fill="#5d401f" opacity=".85"/><circle cx="1395" cy="73" r="10" fill="#d9bb78"/></svg>